<svg width="361" height="133" viewBox="0 0 361 133" fill="none" xmlns="http://www.w3.org/2000/svg">
<path fill-rule="evenodd" clip-rule="evenodd" d="M19.9999 94H27.9999V100H19.9999V94Z" fill="#F8251C"/>
<rect width="361" height="133" fill="black" fill-opacity="0.01"/>
<path d="M42 102.72V94.32L40.54 95.82C40.3 96.06 40.02 96.18 39.7 96.18C39.3667 96.18 39.0867 96.0667 38.86 95.84C38.6333 95.6 38.52 95.32 38.52 95C38.52 94.7067 38.6333 94.4267 38.86 94.16L42.02 91C42.34 90.68 42.7333 90.52 43.2 90.52C43.6533 90.52 44.04 90.68 44.36 91C44.68 91.32 44.84 91.7067 44.84 92.16V102.72C44.84 103.107 44.7 103.44 44.42 103.72C44.14 104 43.8067 104.14 43.42 104.14C43.02 104.14 42.68 104 42.4 103.72C42.1333 103.44 42 103.107 42 102.72ZM47.2241 102.88C46.8774 102.64 46.7041 102.307 46.7041 101.88C46.7041 101.533 46.8241 101.24 47.0641 101C47.3174 100.76 47.6174 100.64 47.9641 100.64C48.1774 100.64 48.3974 100.713 48.6241 100.86C49.5307 101.46 50.5041 101.76 51.5441 101.76C52.3307 101.76 52.9441 101.607 53.3841 101.3C53.8374 100.98 54.0641 100.56 54.0641 100.04C54.0641 99.4933 53.8441 99.0933 53.4041 98.84C52.9774 98.5867 52.3041 98.46 51.3841 98.46H50.8241C50.4774 98.46 50.1841 98.34 49.9441 98.1C49.7041 97.86 49.5841 97.5667 49.5841 97.22C49.5841 96.8867 49.7041 96.6067 49.9441 96.38C50.1841 96.14 50.4707 96.02 50.8041 96.02H51.3841C52.1574 96.02 52.7574 95.8933 53.1841 95.64C53.6241 95.3867 53.8441 95.02 53.8441 94.54C53.8441 94.0333 53.6174 93.64 53.1641 93.36C52.7107 93.08 52.1107 92.94 51.3641 92.94C50.4041 92.94 49.5107 93.22 48.6841 93.78C48.4974 93.9133 48.2841 93.98 48.0441 93.98C47.7241 93.98 47.4441 93.8667 47.2041 93.64C46.9774 93.4 46.8641 93.12 46.8641 92.8C46.8641 92.4267 47.0241 92.1133 47.3441 91.86C48.5307 90.9267 49.9707 90.46 51.6641 90.46C53.2241 90.46 54.4507 90.7867 55.3441 91.44C56.2507 92.0933 56.7041 92.9733 56.7041 94.08C56.7041 94.8933 56.4174 95.5667 55.8441 96.1C55.2574 96.6467 54.5707 96.9867 53.7841 97.12C54.5974 97.2133 55.3174 97.5467 55.9441 98.12C56.5841 98.6933 56.9041 99.4267 56.9041 100.32C56.9041 101.467 56.4174 102.407 55.4441 103.14C54.4841 103.873 53.2174 104.24 51.6441 104.24C49.8841 104.24 48.4107 103.787 47.2241 102.88ZM59.1466 94.68C59.4666 94.36 59.8466 94.2 60.2866 94.2C60.7266 94.2 61.1066 94.36 61.4266 94.68C61.7466 95 61.9066 95.38 61.9066 95.82C61.9066 96.26 61.7466 96.64 61.4266 96.96C61.1066 97.28 60.7266 97.44 60.2866 97.44C59.8466 97.44 59.4666 97.28 59.1466 96.96C58.8266 96.64 58.6666 96.26 58.6666 95.82C58.6666 95.38 58.8266 95 59.1466 94.68ZM59.1466 101.46C59.4666 101.14 59.8466 100.98 60.2866 100.98C60.7266 100.98 61.1066 101.14 61.4266 101.46C61.7466 101.78 61.9066 102.16 61.9066 102.6C61.9066 103.04 61.7466 103.42 61.4266 103.74C61.1066 104.06 60.7266 104.22 60.2866 104.22C59.8466 104.22 59.4666 104.06 59.1466 103.74C58.8266 103.42 58.6666 103.04 58.6666 102.6C58.6666 102.16 58.8266 101.78 59.1466 101.46ZM69.0438 90.46C69.9238 90.4467 70.7238 90.6333 71.4438 91.02C72.1638 91.3933 72.7438 91.9067 73.1838 92.56C73.6371 93.2 73.9771 93.9333 74.2038 94.76C74.4438 95.5867 74.5638 96.4467 74.5638 97.34C74.5638 98.2467 74.4438 99.1133 74.2038 99.94C73.9771 100.753 73.6371 101.487 73.1838 102.14C72.7438 102.793 72.1638 103.313 71.4438 103.7C70.7238 104.073 69.9238 104.253 69.0438 104.24C68.1638 104.253 67.3638 104.073 66.6438 103.7C65.9238 103.313 65.3371 102.793 64.8838 102.14C64.4438 101.487 64.1038 100.753 63.8638 99.94C63.6371 99.1133 63.5238 98.2467 63.5238 97.34C63.5238 96.4467 63.6371 95.5867 63.8638 94.76C64.1038 93.9333 64.4438 93.2 64.8838 92.56C65.3371 91.9067 65.9238 91.3933 66.6438 91.02C67.3638 90.6333 68.1638 90.4467 69.0438 90.46ZM71.0038 94.14C70.5771 93.3667 69.9238 92.98 69.0438 92.98C68.1638 92.98 67.5038 93.3667 67.0638 94.14C66.6238 94.9133 66.4038 95.98 66.4038 97.34C66.4038 98.7133 66.6238 99.7867 67.0638 100.56C67.5038 101.333 68.1638 101.72 69.0438 101.72C69.9238 101.72 70.5771 101.333 71.0038 100.56C71.4438 99.7867 71.6638 98.7133 71.6638 97.34C71.6638 95.9667 71.4438 94.9 71.0038 94.14ZM81.4461 90.46C82.3261 90.4467 83.1261 90.6333 83.8461 91.02C84.5661 91.3933 85.1461 91.9067 85.5861 92.56C86.0394 93.2 86.3794 93.9333 86.6061 94.76C86.8461 95.5867 86.9661 96.4467 86.9661 97.34C86.9661 98.2467 86.8461 99.1133 86.6061 99.94C86.3794 100.753 86.0394 101.487 85.5861 102.14C85.1461 102.793 84.5661 103.313 83.8461 103.7C83.1261 104.073 82.3261 104.253 81.4461 104.24C80.5661 104.253 79.7661 104.073 79.0461 103.7C78.3261 103.313 77.7394 102.793 77.2861 102.14C76.8461 101.487 76.5061 100.753 76.2661 99.94C76.0394 99.1133 75.9261 98.2467 75.9261 97.34C75.9261 96.4467 76.0394 95.5867 76.2661 94.76C76.5061 93.9333 76.8461 93.2 77.2861 92.56C77.7394 91.9067 78.3261 91.3933 79.0461 91.02C79.7661 90.6333 80.5661 90.4467 81.4461 90.46ZM83.4061 94.14C82.9794 93.3667 82.3261 92.98 81.4461 92.98C80.5661 92.98 79.9061 93.3667 79.4661 94.14C79.0261 94.9133 78.8061 95.98 78.8061 97.34C78.8061 98.7133 79.0261 99.7867 79.4661 100.56C79.9061 101.333 80.5661 101.72 81.4461 101.72C82.3261 101.72 82.9794 101.333 83.4061 100.56C83.8461 99.7867 84.0661 98.7133 84.0661 97.34C84.0661 95.9667 83.8461 94.9 83.4061 94.14Z" fill="#1E1E1E"/>
<path d="M75.716 41.024V27.608C75.716 26.984 75.8807 26.5073 76.21 26.178C76.5567 25.8313 77.042 25.658 77.666 25.658H84.842C86.3847 25.658 87.598 26.0827 88.482 26.932C89.3833 27.7813 89.834 28.83 89.834 30.078C89.834 31.1007 89.548 31.976 88.976 32.704C88.4213 33.432 87.7107 33.8827 86.844 34.056C87.7627 34.1773 88.5513 34.654 89.21 35.486C89.8513 36.2833 90.172 37.228 90.172 38.32C90.172 39.7067 89.7213 40.8333 88.82 41.7C87.9187 42.5667 86.688 43 85.128 43H77.666C77.042 43 76.5567 42.8353 76.21 42.506C75.8807 42.1593 75.716 41.6653 75.716 41.024ZM79.408 32.626H84.036C84.66 32.626 85.154 32.4527 85.518 32.106C85.882 31.742 86.064 31.274 86.064 30.702C86.064 30.1647 85.8733 29.714 85.492 29.35C85.128 28.986 84.6427 28.804 84.036 28.804H79.408V32.626ZM79.408 39.854H84.166C84.8593 39.854 85.4053 39.672 85.804 39.308C86.2027 38.9267 86.402 38.424 86.402 37.8C86.402 37.2107 86.194 36.7253 85.778 36.344C85.3793 35.9627 84.842 35.772 84.166 35.772H79.408V39.854ZM104.058 31.898C105.098 33.0767 105.618 34.68 105.618 36.708C105.618 38.736 105.098 40.348 104.058 41.544C103.036 42.7227 101.701 43.312 100.054 43.312C98.4942 43.312 97.2029 42.6707 96.1802 41.388V46.302C96.1802 46.7527 96.0156 47.1427 95.6862 47.472C95.3742 47.8013 94.9929 47.966 94.5422 47.966C94.0742 47.966 93.6756 47.8013 93.3462 47.472C93.0342 47.1427 92.8782 46.7527 92.8782 46.302V31.924C92.8782 31.456 93.0342 31.0573 93.3462 30.728C93.6756 30.3813 94.0742 30.208 94.5422 30.208C94.9929 30.208 95.3829 30.3813 95.7122 30.728C96.0416 31.0573 96.2062 31.456 96.2062 31.924V32.002C97.1942 30.754 98.4769 30.13 100.054 30.13C101.701 30.13 103.036 30.7193 104.058 31.898ZM102.186 36.708C102.186 35.6333 101.892 34.758 101.302 34.082C100.73 33.406 99.9676 33.068 99.0142 33.068C98.4769 33.068 97.9396 33.2067 97.4022 33.484C96.8649 33.7613 96.4576 34.0993 96.1802 34.498V38.944C96.4576 39.3427 96.8649 39.6807 97.4022 39.958C97.9569 40.2353 98.4942 40.374 99.0142 40.374C99.9676 40.374 100.73 40.036 101.302 39.36C101.892 38.684 102.186 37.8 102.186 36.708ZM113.781 30.13C115.584 30.13 117.083 30.728 118.279 31.924C119.475 33.1027 120.073 34.5327 120.073 36.214C120.073 37.254 119.423 37.774 118.123 37.774H110.739C110.843 38.6233 111.216 39.3253 111.857 39.88C112.516 40.4173 113.348 40.686 114.353 40.686C115.22 40.686 116.069 40.452 116.901 39.984C117.075 39.88 117.283 39.828 117.525 39.828C117.872 39.828 118.175 39.958 118.435 40.218C118.695 40.478 118.825 40.7813 118.825 41.128C118.825 41.6307 118.591 42.012 118.123 42.272C116.91 42.9653 115.532 43.312 113.989 43.312C112.048 43.312 110.445 42.7053 109.179 41.492C107.914 40.2613 107.281 38.6667 107.281 36.708C107.281 34.8707 107.897 33.3193 109.127 32.054C110.358 30.7713 111.909 30.13 113.781 30.13ZM110.687 35.538H116.875C116.823 34.758 116.529 34.0993 115.991 33.562C115.454 33.0247 114.717 32.756 113.781 32.756C112.897 32.756 112.187 33.0247 111.649 33.562C111.112 34.0993 110.791 34.758 110.687 35.538ZM134.418 41.544V34.498L131.35 42.038C131.056 42.7833 130.631 43.156 130.076 43.156C129.522 43.156 129.088 42.7833 128.776 42.038L125.734 34.498V41.544C125.734 41.9947 125.57 42.3847 125.24 42.714C124.928 43.026 124.547 43.182 124.096 43.182C123.646 43.182 123.256 43.026 122.926 42.714C122.614 42.3847 122.458 41.9947 122.458 41.544V32.782C122.458 32.0887 122.701 31.4993 123.186 31.014C123.689 30.5113 124.287 30.26 124.98 30.26C125.5 30.26 125.968 30.4073 126.384 30.702C126.818 30.9793 127.13 31.352 127.32 31.82L130.076 38.554L132.78 31.846C132.971 31.378 133.283 30.9967 133.716 30.702C134.15 30.4073 134.626 30.26 135.146 30.26C135.84 30.26 136.429 30.5113 136.914 31.014C137.417 31.4993 137.668 32.0887 137.668 32.782V41.544C137.668 41.9947 137.504 42.3847 137.174 42.714C136.862 43.026 136.481 43.182 136.03 43.182C135.58 43.182 135.198 43.026 134.886 42.714C134.574 42.3847 134.418 41.9947 134.418 41.544ZM152.591 32.392V41.518C152.591 41.9687 152.426 42.3587 152.097 42.688C151.767 43.0173 151.377 43.182 150.927 43.182C150.476 43.182 150.086 43.0173 149.757 42.688C149.427 42.3587 149.263 41.9687 149.263 41.518V38.632H146.325L143.517 42.558C143.205 42.974 142.797 43.182 142.295 43.182C141.844 43.182 141.463 43.026 141.151 42.714C140.839 42.3847 140.683 42.0033 140.683 41.57C140.683 41.3273 140.804 41.0153 141.047 40.634L142.971 38.294C142.26 37.982 141.688 37.5053 141.255 36.864C140.821 36.2227 140.605 35.4513 140.605 34.55C140.605 33.3887 141.003 32.418 141.801 31.638C142.598 30.8407 143.655 30.442 144.973 30.442H150.615C151.256 30.442 151.741 30.6153 152.071 30.962C152.417 31.2913 152.591 31.768 152.591 32.392ZM149.263 35.98V33.068H145.545C145.077 33.068 144.695 33.2067 144.401 33.484C144.123 33.7613 143.985 34.108 143.985 34.524C143.985 34.94 144.123 35.2867 144.401 35.564C144.695 35.8413 145.077 35.98 145.545 35.98H149.263Z" fill="white"/>
</svg>
